<svg width="148" height="147" viewBox="0 0 148 147" fill="none" xmlns="http://www.w3.org/2000/svg">
<mask id="mask0_0_1" style="mask-type:alpha" maskUnits="userSpaceOnUse" x="-213" y="-7" width="366" height="154">
<rect x="-212.5" y="-6.5" width="365" height="152.72" rx="7.5" fill="#041C2C" stroke="#333F48"/>
</mask>
<g mask="url(#mask0_0_1)">
<path d="M84.3527 2.49997C86.7547 1.13469 89.6348 0.984539 91.6475 1.1041C91.1276 0.567449 90.1101 0.372807 90.1101 0.372807C91.3584 0.186506 94.1467 1.42665 94.1467 1.42665C111.516 -5.26903 114.246 20.3125 113.882 26.2574C113.521 32.1996 119.72 34.1404 128.755 38.823C145.997 47.757 147.512 59.722 147.512 59.722C147.378 59.7998 147.236 59.8916 147.089 59.9945C146.233 58.5458 144.473 55.8236 142.989 55.412C143.044 55.5427 144.743 59.1603 145.377 61.2318C140.289 65.1024 130.773 73.6778 124.143 79.759C124.174 78.5717 124.126 76.8839 123.693 75.9941L122.873 80.9296C119.322 84.1941 116.876 86.4881 116.876 86.4881C117.315 81.686 95.1614 56.3408 83.6021 48.7525C80.7888 44.6094 79.788 37.2909 79.7129 36.7153C80.1994 42.5184 81.1919 45.7745 82.0787 47.6069C72.2875 38.5894 77.9865 6.12031 84.3527 2.49997Z" fill="#2C5697"/>
<path d="M84.2831 49.1251C84.2247 49.1502 89.8626 52.0781 94.1049 50.9186C98.0942 49.8314 100.702 44.6567 100.646 44.6456C98.956 44.3091 98.4695 41.9873 98.5056 32.0078L97.7411 32.1579L84.8975 34.7022C84.8975 34.7022 85.1894 38.7452 85.1977 42.5518C85.2089 45.7523 85.0142 48.7831 84.2831 49.1251Z" fill="#DBE2E9"/>
<path d="M98.8059 6.69004C98.8059 6.69004 92.4703 -0.0557041 84.5167 6.34524C84.5167 6.34524 89.1454 5.54443 98.8059 6.69004Z" fill="#003C71"/>
<path d="M84.9001 34.702C84.9001 34.702 85.192 38.745 85.2003 42.5517C92.3866 42.3487 96.1841 35.792 97.7409 32.1578L84.9001 34.702Z" fill="#D6DADE"/>
<path d="M99.0674 30.7619C99.0674 30.7619 102.834 24.8086 103.738 19.7201C104.383 16.0859 102.534 2.61942 89.001 4.5575C89.001 4.5575 85.07 4.944 81.3782 7.44098C78.4397 9.42633 74.2002 13.7112 78.9401 25.4621L80.1716 29.4328L99.0674 30.7619Z" fill="#2C5697"/>
<path d="M33.712 267.505L40.5202 267.714L47.89 267.939C47.89 267.939 64.9092 248.983 74.4585 218.6C74.6809 217.893 74.9144 217.179 75.1646 216.456C80.3883 201.218 91.222 182.09 96.9293 164.776C97.8384 162.017 98.6529 159.423 99.3868 156.965C99.6204 156.178 99.8511 155.405 100.068 154.643C104.274 140.023 105.492 130.427 106.615 120.169L65.3957 120.5C65.3929 120.503 58.7376 190.532 33.712 267.505Z" fill="#DBE2E9"/>
<path d="M70.8955 96.609C70.9942 116.167 68.1329 124.558 68.1329 124.558C68.1329 124.558 85.0768 133.498 105.216 126.917C105.453 126.84 121.89 122.942 121.89 122.942C121.554 122.149 118.556 108.97 118.228 108.244C113.976 98.7602 110.749 94.6019 110.244 91.6883C109.31 86.2465 109.289 80.6135 109.756 75.302C110.984 61.2415 114.64 49.5678 114.64 49.5678C109.153 48.2705 103.873 46.0527 98.161 43.8294C96.8478 45.5288 92.9748 47.2447 89.4889 47.1644C85.4772 47.0729 84.2253 45.3098 84.3721 43.3249C80.0961 45.7949 76.6983 48.1457 76.6983 48.1457C73.0655 54.6991 65.6959 61.0641 65.1621 71.1188C65.0313 73.5915 70.8928 96.0601 70.8955 96.609Z" fill="#2C5697"/>
<path d="M106.609 99.0007C108.411 101.55 111.866 117.055 120.459 119.004C116.031 107.954 112.67 103.11 112.144 99.7125C111.171 93.37 111.149 86.8105 111.636 80.6209C108.758 75.5769 106.612 72.1206 106.612 72.1206C106.387 71.3059 102.039 57.8645 100.646 69.8794C99.2562 81.8944 104.597 96.1478 106.609 99.0007Z" fill="#5F9AA8"/>
<path d="M82.4983 38.3085C82.4983 38.3085 99.5008 38.5893 99.512 27.9952C99.5231 17.4011 101.725 10.3023 90.8717 9.67662C80.0158 9.04821 77.903 13.0884 77.0384 16.6253C76.1766 20.1595 78.0753 37.9637 82.4983 38.3085Z" fill="#DBE2E9"/>
<path d="M77.5445 10.7334C80.1688 7.55244 82.1538 8.24481 83.2658 9.19856C86.9409 3.70687 98.553 11.6483 98.553 11.6483C99.69 19.2504 105.169 23.6049 105.169 23.6049C105.169 23.6049 102.07 25.5207 94.9251 23.6827C89.3012 22.2368 85.2229 14.2314 83.7384 10.8864C82.7265 11.7845 80.5942 13.8616 79.9548 15.897C79.1069 18.5942 78.726 24.1471 77.1081 23.958C77.1108 23.9608 73.6025 15.5133 77.5445 10.7334Z" fill="#2C5697"/>
<path d="M14.1518 55.8901C14.1518 55.8901 25.3135 62.1326 29.3 63.9316C30.7178 64.5712 33.2866 65.7668 35.9109 66.9931C37.4955 67.7327 39.0996 68.4863 40.4868 69.1397C42.8303 70.2408 45.6187 69.6374 47.3034 67.6688C53.3471 60.6116 68.9874 45.3127 85.1393 43.3941L85.1949 43.3691C85.1949 43.3691 85.1921 43.3746 85.1865 43.3858C85.1921 43.3858 85.2004 43.383 85.206 43.383L85.117 43.5582C84.208 45.816 75.3536 67.944 75.0812 72.6127C74.7921 77.5316 73.9247 153.058 73.9247 153.058C73.9247 153.058 74.503 156.531 67.8504 155.083C61.1951 153.637 59.4603 152.188 59.4603 152.188C59.4603 152.188 65.8238 105.599 64.0891 89.3936C63.7471 86.2126 64.0557 82.6395 64.7674 78.9497C54.9289 84.9085 43.3307 87.5612 43.3307 87.5612C43.3307 87.5612 39.005 85.6732 32.283 81.5078C29.4613 79.756 26.1892 76.9643 22.9672 74.0113C19.0752 70.4438 12.3781 61.8212 12.3781 61.8212L14.1518 55.8901Z" fill="#003C71"/>
<path d="M93.3598 209.919C93.257 223.427 93.9381 254.481 95.6978 267.338H102.225C105.834 267.338 107.632 267.286 107.632 267.286C112.044 244.932 115.183 226.436 117.468 210.497C119.342 197.417 121.01 186.203 122.291 176.552C123.581 166.836 124.479 158.703 124.799 151.829C124.849 150.748 124.885 149.694 124.907 148.673C124.927 147.647 124.932 146.649 124.924 145.679L89.3094 142.206C89.7569 165.874 93.4182 202.069 93.3598 209.919Z" fill="#DBE2E9"/>
<path d="M100.543 151.612C100.543 151.612 103.051 160.677 111.73 159.52C120.409 158.364 132.753 153.153 132.753 153.153C132.753 153.153 129.044 141.43 124.432 126.031C118.847 107.387 111.936 83.3513 108.678 68.1915C107.763 63.9427 107.138 60.3947 106.907 57.856L99.5564 43.8751C99.5564 43.8751 88.9702 67.9829 88.3919 74.0585C87.8137 80.1369 100.543 151.612 100.543 151.612Z" fill="#003C71"/>
<path d="M69.5462 80.8434C73.7246 81.3911 75.3258 83.6128 75.8401 86.6076C76.1181 88.2231 76.9521 89.8219 77.6583 90.9509C81.8199 91.1733 91.7279 91.7127 100.054 92.241L100.741 103.163C93.9018 102.312 85.4979 100.577 75.8235 97.2656C75.0812 97.1377 74.1527 96.6761 72.9879 95.7251C66.9942 90.8146 63.5914 82.5924 63.5803 81.4162C63.572 80.2344 65.3678 80.2956 69.5462 80.8434Z" fill="#DBE2E9"/>
<path d="M100.927 86.7938C101.314 96.6316 103.629 115.732 124.265 125.956C124.321 125.981 124.377 126.011 124.429 126.034C118.844 107.39 111.933 83.3542 108.675 68.1944C104.889 73.8585 100.716 81.3744 100.927 86.7938Z" fill="#003360"/>
<path d="M99.5564 43.8751C99.5564 43.8751 117.209 45.1264 121.452 54.5804C125.694 64.0345 127.045 95.4775 121.644 104.737C121.644 104.737 114.207 106.856 101.058 104.395C100.896 104.364 100.735 104.334 100.571 104.303C100.571 104.303 96.376 94.0288 100.137 92.0046C100.137 92.0046 111.227 92.5829 110.07 88.9181C108.917 85.2533 99.5564 43.8751 99.5564 43.8751Z" fill="#003C71"/>
<path d="M3.10191 48.933C12.5984 47.7123 14.9948 56.3516 14.9948 56.3516L13.2211 62.2854C10.2938 62.6886 7.7306 61.9267 5.37038 58.5483C3.01016 55.1699 2.35964 56.4684 0.858443 53.952C-1.17374 50.543 2.01215 49.275 3.10191 48.933Z" fill="#DBE2E9"/>
<path d="M29.3001 63.9319C30.718 64.5714 33.2867 65.7671 35.911 66.9933C34.5071 69.4875 32.7501 74.0199 32.2831 81.5108C29.4614 79.7591 25.8085 76.8422 22.6893 73.7808C17.6853 68.8674 12.3782 61.8242 12.3782 61.8242L14.1519 55.8904C14.1519 55.8904 25.3136 62.1328 29.3001 63.9319Z" fill="#DBE2E9"/>
</g>
</svg>

